<svg xmlns="http://www.w3.org/2000/svg" width="24" height="24" fill="none" viewBox="0 0 24 24" id="camera-off"><path fill="#000" fill-rule="evenodd" d="M1.29289 1.29289C1.68342 0.902369 2.31658 0.902369 2.70711 1.29289L22.7071 21.2929C23.0976 21.6834 23.0976 22.3166 22.7071 22.7071C22.3166 23.0976 21.6834 23.0976 21.2929 22.7071L20.5376 21.9518C20.3629 21.9835 20.1832 22 20 22H4C2.34315 22 1 20.6569 1 19V8C1 6.47504 2.13781 5.21583 3.6108 5.02501L1.29289 2.70711C0.902369 2.31658 0.902369 1.68342 1.29289 1.29289ZM15.3224 16.7366L18.5858 20H4C3.44772 20 3 19.5523 3 19V8C3 7.44772 3.44772 7 4 7H5.58579L8.26348 9.67769C7.47834 10.5603 7 11.7243 7 13C7 15.7615 9.23858 18 12 18C13.2753 18 14.4398 17.5216 15.3224 16.7366ZM9 13C9 12.2774 9.25499 11.6143 9.68157 11.0958L13.9042 15.3184C13.3857 15.7451 12.723 16 12 16C10.3431 16 9 14.6569 9 13ZM9 2C8.44772 2 8 2.44772 8 3C8 3.55228 8.44772 4 9 4H14.9296C15.264 4 15.5762 4.1671 15.7617 4.4453L17.1679 6.5547C17.3534 6.8329 17.6656 7 18 7H20C20.5523 7 21 7.44772 21 8V16C21 16.5523 21.4477 17 22 17C22.5523 17 23 16.5523 23 16V8C23 6.34315 21.6569 5 20 5H18.5352L17.4258 3.3359C16.8694 2.5013 15.9327 2 14.9296 2H9Z" clip-rule="evenodd"></path></svg>